  <svg
        width="242"
        height="354"
        viewBox="0 0 242 354"
        fill="none"
        xmlns="http://www.w3.org/2000/svg"
        xmlnsXlink="http://www.w3.org/1999/xlink"
        className="absolute bottom-0 right-0 left-0"
      >
        <g filter="url(#filter0_d_0_626)">
          <rect
            width="184.834"
            height="415.256"
            transform="translate(30.582 18.8711)"
            fill="url(#pattern0_0_626)"
          />
          <path
            d="M193.613 10.0156C210.365 10.0156 223.945 24.1134 223.945 41.5039V136.954H224.419C225.466 136.954 226.314 137.835 226.314 138.922V184.679C226.314 185.766 225.466 186.646 224.419 186.646H223.945V411.495C223.945 428.886 210.365 442.983 193.613 442.983H52.3809C35.6292 442.983 22.0498 428.886 22.0498 411.495L22.0498 197.471H21.5752C20.5283 197.471 19.6797 196.59 19.6797 195.503V169.919C19.6797 168.832 20.5283 167.95 21.5752 167.95H22.0498V155.65H21.5752C20.5284 155.65 19.6798 154.769 19.6797 153.683L19.6797 128.098C19.6798 127.011 20.5284 126.13 21.5752 126.13H22.0498V110.878H21.5752C20.5283 110.878 19.6797 109.996 19.6797 108.909V96.6094C19.6797 95.5225 20.5283 94.6417 21.5752 94.6416H22.0498V41.5039C22.05 24.1135 35.6293 10.0158 52.3809 10.0156L193.613 10.0156ZM52.3809 18.8721C40.3407 18.8722 30.5802 29.0046 30.5801 41.5039L30.5801 411.495C30.5801 423.995 40.3406 434.128 52.3809 434.128H193.613C205.654 434.128 215.414 423.995 215.414 411.495V41.5039C215.414 29.0045 205.654 18.8721 193.613 18.8721H160.912V26.252C160.912 31.6864 156.668 36.0916 151.434 36.0918H95.0352C89.8002 36.0918 85.5567 31.6865 85.5566 26.252V18.8721H52.3809Z"
            fill="black"
          />
        </g>
      </svg>